<svg xmlns="http://www.w3.org/2000/svg" viewBox="0 0 64 64">
  <rect width="64" height="64" rx="14" fill="#fff7f0" />
  <path d="M32 9c-3.2 4-3.2 7.2 0 9.4 3.2-2.2 3.2-5.4 0-9.4Z" fill="#ffab47" />
  <rect x="30.3" y="17" width="3.4" height="9" rx="1.7" fill="#ff8fab" />
  <path d="M15 36c0-5 5-9 17-9s17 4 17 9v3H15Z" fill="#ffd0dd" />
  <path d="M15 36c2.5-3.5 5-3.5 7.5 0s5 3.5 7.5 0 5-3.5 7.5 0 5 3.5 7.5 0V40H15Z" fill="#fff" />
  <rect x="14" y="39" width="36" height="14" rx="4" fill="#9ee7d3" />
  <circle cx="24" cy="46" r="1.6" fill="#c8b6ff" />
  <circle cx="32" cy="48" r="1.6" fill="#ffe08a" />
  <circle cx="40" cy="46" r="1.6" fill="#ff8fab" />
  <rect x="11" y="52" width="42" height="5" rx="2.5" fill="#ffe08a" />
</svg>
